<mxfile host="app.diagrams.net" modified="2021-11-03T19:07:21.536Z" agent="5.0 (Windows NT 10.0; Win64; x64) AppleWebKit/537.36 (KHTML, like Gecko) Chrome/95.0.4638.69 Safari/537.36" etag="vPw4LMxTTclHR_CQ_V_U" version="15.6.8" type="github">
  <diagram id="KHPXjWSASiaWN9Rr_398" name="Page-1">
    <mxGraphModel dx="1447" dy="827" grid="1" gridSize="10" guides="1" tooltips="1" connect="1" arrows="1" fold="1" page="1" pageScale="1" pageWidth="1169" pageHeight="827" background="none" math="0" shadow="0">
      <root>
        <mxCell id="0" />
        <mxCell id="1" parent="0" />
        <mxCell id="e3lZ_9oKnuMcqdz6FM94-57" style="edgeStyle=orthogonalEdgeStyle;rounded=0;orthogonalLoop=1;jettySize=auto;html=1;exitX=1;exitY=0.25;exitDx=0;exitDy=0;entryX=0.5;entryY=1;entryDx=0;entryDy=0;startArrow=none;startFill=0;endArrow=none;endFill=0;" edge="1" parent="1" source="e3lZ_9oKnuMcqdz6FM94-4" target="e3lZ_9oKnuMcqdz6FM94-10">
          <mxGeometry relative="1" as="geometry" />
        </mxCell>
        <mxCell id="e3lZ_9oKnuMcqdz6FM94-58" style="edgeStyle=orthogonalEdgeStyle;rounded=0;orthogonalLoop=1;jettySize=auto;html=1;exitX=1;exitY=0.5;exitDx=0;exitDy=0;entryX=0;entryY=0.5;entryDx=0;entryDy=0;startArrow=none;startFill=0;endArrow=none;endFill=0;" edge="1" parent="1" source="e3lZ_9oKnuMcqdz6FM94-4" target="e3lZ_9oKnuMcqdz6FM94-56">
          <mxGeometry relative="1" as="geometry" />
        </mxCell>
        <mxCell id="e3lZ_9oKnuMcqdz6FM94-60" value="1" style="edgeLabel;html=1;align=center;verticalAlign=middle;resizable=0;points=[];" vertex="1" connectable="0" parent="e3lZ_9oKnuMcqdz6FM94-58">
          <mxGeometry x="-0.7957" y="-1" relative="1" as="geometry">
            <mxPoint x="1" as="offset" />
          </mxGeometry>
        </mxCell>
        <mxCell id="e3lZ_9oKnuMcqdz6FM94-61" value="n" style="edgeLabel;html=1;align=center;verticalAlign=middle;resizable=0;points=[];" vertex="1" connectable="0" parent="e3lZ_9oKnuMcqdz6FM94-58">
          <mxGeometry x="0.6918" y="-5" relative="1" as="geometry">
            <mxPoint x="1" as="offset" />
          </mxGeometry>
        </mxCell>
        <mxCell id="e3lZ_9oKnuMcqdz6FM94-4" value="Livros" style="whiteSpace=wrap;html=1;align=center;" vertex="1" parent="1">
          <mxGeometry x="584" y="610" width="100" height="40" as="geometry" />
        </mxCell>
        <mxCell id="e3lZ_9oKnuMcqdz6FM94-21" style="edgeStyle=orthogonalEdgeStyle;rounded=0;orthogonalLoop=1;jettySize=auto;html=1;exitX=0.5;exitY=1;exitDx=0;exitDy=0;entryX=0.5;entryY=0;entryDx=0;entryDy=0;startArrow=none;startFill=0;endArrow=none;endFill=0;" edge="1" parent="1" source="e3lZ_9oKnuMcqdz6FM94-5" target="e3lZ_9oKnuMcqdz6FM94-20">
          <mxGeometry relative="1" as="geometry" />
        </mxCell>
        <mxCell id="e3lZ_9oKnuMcqdz6FM94-50" style="edgeStyle=orthogonalEdgeStyle;rounded=0;orthogonalLoop=1;jettySize=auto;html=1;exitX=1;exitY=0.5;exitDx=0;exitDy=0;entryX=0;entryY=0.5;entryDx=0;entryDy=0;startArrow=none;startFill=0;endArrow=none;endFill=0;" edge="1" parent="1" source="e3lZ_9oKnuMcqdz6FM94-5" target="e3lZ_9oKnuMcqdz6FM94-35">
          <mxGeometry relative="1" as="geometry" />
        </mxCell>
        <mxCell id="e3lZ_9oKnuMcqdz6FM94-81" value="1" style="edgeLabel;html=1;align=center;verticalAlign=middle;resizable=0;points=[];" vertex="1" connectable="0" parent="e3lZ_9oKnuMcqdz6FM94-50">
          <mxGeometry x="-0.6643" relative="1" as="geometry">
            <mxPoint as="offset" />
          </mxGeometry>
        </mxCell>
        <mxCell id="e3lZ_9oKnuMcqdz6FM94-82" value="n" style="edgeLabel;html=1;align=center;verticalAlign=middle;resizable=0;points=[];" vertex="1" connectable="0" parent="e3lZ_9oKnuMcqdz6FM94-50">
          <mxGeometry x="0.75" y="-2" relative="1" as="geometry">
            <mxPoint as="offset" />
          </mxGeometry>
        </mxCell>
        <mxCell id="e3lZ_9oKnuMcqdz6FM94-5" value="Autores" style="whiteSpace=wrap;html=1;align=center;" vertex="1" parent="1">
          <mxGeometry x="290" y="370" width="100" height="40" as="geometry" />
        </mxCell>
        <mxCell id="e3lZ_9oKnuMcqdz6FM94-31" style="edgeStyle=orthogonalEdgeStyle;rounded=0;orthogonalLoop=1;jettySize=auto;html=1;exitX=0.5;exitY=1;exitDx=0;exitDy=0;entryX=0.5;entryY=0;entryDx=0;entryDy=0;startArrow=none;startFill=0;endArrow=none;endFill=0;" edge="1" parent="1" source="e3lZ_9oKnuMcqdz6FM94-6" target="e3lZ_9oKnuMcqdz6FM94-27">
          <mxGeometry relative="1" as="geometry" />
        </mxCell>
        <mxCell id="e3lZ_9oKnuMcqdz6FM94-45" style="edgeStyle=orthogonalEdgeStyle;rounded=0;orthogonalLoop=1;jettySize=auto;html=1;exitX=0;exitY=0.5;exitDx=0;exitDy=0;entryX=1;entryY=0.5;entryDx=0;entryDy=0;startArrow=none;startFill=0;endArrow=none;endFill=0;" edge="1" parent="1" source="e3lZ_9oKnuMcqdz6FM94-6" target="e3lZ_9oKnuMcqdz6FM94-36">
          <mxGeometry relative="1" as="geometry" />
        </mxCell>
        <mxCell id="e3lZ_9oKnuMcqdz6FM94-87" value="n" style="edgeLabel;html=1;align=center;verticalAlign=middle;resizable=0;points=[];" vertex="1" connectable="0" parent="e3lZ_9oKnuMcqdz6FM94-45">
          <mxGeometry x="0.6279" y="4" relative="1" as="geometry">
            <mxPoint as="offset" />
          </mxGeometry>
        </mxCell>
        <mxCell id="e3lZ_9oKnuMcqdz6FM94-88" value="1" style="edgeLabel;html=1;align=center;verticalAlign=middle;resizable=0;points=[];" vertex="1" connectable="0" parent="e3lZ_9oKnuMcqdz6FM94-45">
          <mxGeometry x="-0.7393" y="2" relative="1" as="geometry">
            <mxPoint as="offset" />
          </mxGeometry>
        </mxCell>
        <mxCell id="e3lZ_9oKnuMcqdz6FM94-129" style="edgeStyle=orthogonalEdgeStyle;rounded=0;orthogonalLoop=1;jettySize=auto;html=1;exitX=1;exitY=0.5;exitDx=0;exitDy=0;entryX=0;entryY=0.5;entryDx=0;entryDy=0;startArrow=none;startFill=0;endArrow=none;endFill=0;" edge="1" parent="1" source="e3lZ_9oKnuMcqdz6FM94-6" target="e3lZ_9oKnuMcqdz6FM94-26">
          <mxGeometry relative="1" as="geometry" />
        </mxCell>
        <mxCell id="e3lZ_9oKnuMcqdz6FM94-130" style="edgeStyle=orthogonalEdgeStyle;rounded=0;orthogonalLoop=1;jettySize=auto;html=1;exitX=0.75;exitY=0;exitDx=0;exitDy=0;entryX=0.5;entryY=1;entryDx=0;entryDy=0;startArrow=none;startFill=0;endArrow=none;endFill=0;" edge="1" parent="1" source="e3lZ_9oKnuMcqdz6FM94-6" target="e3lZ_9oKnuMcqdz6FM94-119">
          <mxGeometry relative="1" as="geometry" />
        </mxCell>
        <mxCell id="e3lZ_9oKnuMcqdz6FM94-6" value="Editoras" style="whiteSpace=wrap;html=1;align=center;" vertex="1" parent="1">
          <mxGeometry x="885" y="370" width="100" height="40" as="geometry" />
        </mxCell>
        <mxCell id="e3lZ_9oKnuMcqdz6FM94-48" style="edgeStyle=orthogonalEdgeStyle;rounded=0;orthogonalLoop=1;jettySize=auto;html=1;exitX=0.5;exitY=1;exitDx=0;exitDy=0;entryX=0.5;entryY=0;entryDx=0;entryDy=0;startArrow=none;startFill=0;endArrow=none;endFill=0;" edge="1" parent="1" source="e3lZ_9oKnuMcqdz6FM94-7" target="e3lZ_9oKnuMcqdz6FM94-4">
          <mxGeometry relative="1" as="geometry" />
        </mxCell>
        <mxCell id="e3lZ_9oKnuMcqdz6FM94-79" value="n" style="edgeLabel;html=1;align=center;verticalAlign=middle;resizable=0;points=[];" vertex="1" connectable="0" parent="e3lZ_9oKnuMcqdz6FM94-48">
          <mxGeometry x="0.7771" y="6" relative="1" as="geometry">
            <mxPoint as="offset" />
          </mxGeometry>
        </mxCell>
        <mxCell id="e3lZ_9oKnuMcqdz6FM94-80" value="1" style="edgeLabel;html=1;align=center;verticalAlign=middle;resizable=0;points=[];" vertex="1" connectable="0" parent="e3lZ_9oKnuMcqdz6FM94-48">
          <mxGeometry x="-0.831" y="5" relative="1" as="geometry">
            <mxPoint as="offset" />
          </mxGeometry>
        </mxCell>
        <mxCell id="e3lZ_9oKnuMcqdz6FM94-91" style="edgeStyle=orthogonalEdgeStyle;rounded=0;orthogonalLoop=1;jettySize=auto;html=1;exitX=0;exitY=0.5;exitDx=0;exitDy=0;entryX=0.5;entryY=1;entryDx=0;entryDy=0;startArrow=none;startFill=0;endArrow=none;endFill=0;" edge="1" parent="1" source="e3lZ_9oKnuMcqdz6FM94-7" target="e3lZ_9oKnuMcqdz6FM94-90">
          <mxGeometry relative="1" as="geometry" />
        </mxCell>
        <mxCell id="e3lZ_9oKnuMcqdz6FM94-7" value="Area" style="whiteSpace=wrap;html=1;align=center;" vertex="1" parent="1">
          <mxGeometry x="584" y="260" width="100" height="40" as="geometry" />
        </mxCell>
        <mxCell id="e3lZ_9oKnuMcqdz6FM94-102" style="edgeStyle=orthogonalEdgeStyle;rounded=0;orthogonalLoop=1;jettySize=auto;html=1;exitX=0.25;exitY=1;exitDx=0;exitDy=0;entryX=0.5;entryY=0;entryDx=0;entryDy=0;startArrow=none;startFill=0;endArrow=none;endFill=0;" edge="1" parent="1" source="e3lZ_9oKnuMcqdz6FM94-8" target="e3lZ_9oKnuMcqdz6FM94-98">
          <mxGeometry relative="1" as="geometry" />
        </mxCell>
        <mxCell id="e3lZ_9oKnuMcqdz6FM94-128" style="edgeStyle=orthogonalEdgeStyle;rounded=0;orthogonalLoop=1;jettySize=auto;html=1;exitX=0.5;exitY=1;exitDx=0;exitDy=0;entryX=0.5;entryY=0;entryDx=0;entryDy=0;startArrow=none;startFill=0;endArrow=none;endFill=0;" edge="1" parent="1" source="e3lZ_9oKnuMcqdz6FM94-8" target="e3lZ_9oKnuMcqdz6FM94-95">
          <mxGeometry relative="1" as="geometry" />
        </mxCell>
        <mxCell id="e3lZ_9oKnuMcqdz6FM94-8" value="Usuario" style="whiteSpace=wrap;html=1;align=center;" vertex="1" parent="1">
          <mxGeometry x="70" y="690" width="100" height="40" as="geometry" />
        </mxCell>
        <mxCell id="e3lZ_9oKnuMcqdz6FM94-69" style="edgeStyle=orthogonalEdgeStyle;rounded=0;orthogonalLoop=1;jettySize=auto;html=1;exitX=0;exitY=0.25;exitDx=0;exitDy=0;entryX=1;entryY=0.5;entryDx=0;entryDy=0;startArrow=none;startFill=0;endArrow=none;endFill=0;" edge="1" parent="1" source="e3lZ_9oKnuMcqdz6FM94-9" target="e3lZ_9oKnuMcqdz6FM94-68">
          <mxGeometry relative="1" as="geometry" />
        </mxCell>
        <mxCell id="e3lZ_9oKnuMcqdz6FM94-70" style="edgeStyle=orthogonalEdgeStyle;rounded=0;orthogonalLoop=1;jettySize=auto;html=1;exitX=0;exitY=0.75;exitDx=0;exitDy=0;entryX=1;entryY=0.5;entryDx=0;entryDy=0;startArrow=none;startFill=0;endArrow=none;endFill=0;" edge="1" parent="1" source="e3lZ_9oKnuMcqdz6FM94-9" target="e3lZ_9oKnuMcqdz6FM94-67">
          <mxGeometry relative="1" as="geometry" />
        </mxCell>
        <mxCell id="e3lZ_9oKnuMcqdz6FM94-71" style="edgeStyle=orthogonalEdgeStyle;rounded=0;orthogonalLoop=1;jettySize=auto;html=1;exitX=0.5;exitY=1;exitDx=0;exitDy=0;entryX=0.5;entryY=0;entryDx=0;entryDy=0;startArrow=none;startFill=0;endArrow=none;endFill=0;" edge="1" parent="1" source="e3lZ_9oKnuMcqdz6FM94-9" target="e3lZ_9oKnuMcqdz6FM94-64">
          <mxGeometry relative="1" as="geometry" />
        </mxCell>
        <mxCell id="e3lZ_9oKnuMcqdz6FM94-9" value="PalavrasChave" style="whiteSpace=wrap;html=1;align=center;" vertex="1" parent="1">
          <mxGeometry x="1020" y="756" width="100" height="40" as="geometry" />
        </mxCell>
        <mxCell id="e3lZ_9oKnuMcqdz6FM94-10" value="nome" style="ellipse;whiteSpace=wrap;html=1;align=center;" vertex="1" parent="1">
          <mxGeometry x="686" y="550" width="100" height="40" as="geometry" />
        </mxCell>
        <mxCell id="e3lZ_9oKnuMcqdz6FM94-17" style="edgeStyle=orthogonalEdgeStyle;rounded=0;orthogonalLoop=1;jettySize=auto;html=1;exitX=0.5;exitY=0;exitDx=0;exitDy=0;entryX=0.5;entryY=1;entryDx=0;entryDy=0;startArrow=none;startFill=0;endArrow=none;endFill=0;" edge="1" parent="1" source="e3lZ_9oKnuMcqdz6FM94-12" target="e3lZ_9oKnuMcqdz6FM94-4">
          <mxGeometry relative="1" as="geometry" />
        </mxCell>
        <mxCell id="e3lZ_9oKnuMcqdz6FM94-12" value="&lt;u&gt;id&lt;/u&gt;" style="ellipse;whiteSpace=wrap;html=1;align=center;" vertex="1" parent="1">
          <mxGeometry x="584" y="716" width="100" height="40" as="geometry" />
        </mxCell>
        <mxCell id="e3lZ_9oKnuMcqdz6FM94-15" style="edgeStyle=orthogonalEdgeStyle;rounded=0;orthogonalLoop=1;jettySize=auto;html=1;exitX=0.5;exitY=1;exitDx=0;exitDy=0;entryX=0;entryY=0.5;entryDx=0;entryDy=0;endArrow=none;endFill=0;" edge="1" parent="1" source="e3lZ_9oKnuMcqdz6FM94-13" target="e3lZ_9oKnuMcqdz6FM94-4">
          <mxGeometry relative="1" as="geometry" />
        </mxCell>
        <mxCell id="e3lZ_9oKnuMcqdz6FM94-13" value="titulo" style="ellipse;whiteSpace=wrap;html=1;align=center;" vertex="1" parent="1">
          <mxGeometry x="490" y="550" width="100" height="40" as="geometry" />
        </mxCell>
        <mxCell id="e3lZ_9oKnuMcqdz6FM94-22" style="edgeStyle=orthogonalEdgeStyle;rounded=0;orthogonalLoop=1;jettySize=auto;html=1;exitX=0.5;exitY=1;exitDx=0;exitDy=0;entryX=0.5;entryY=0;entryDx=0;entryDy=0;startArrow=none;startFill=0;endArrow=none;endFill=0;" edge="1" parent="1" source="e3lZ_9oKnuMcqdz6FM94-18" target="e3lZ_9oKnuMcqdz6FM94-5">
          <mxGeometry relative="1" as="geometry" />
        </mxCell>
        <mxCell id="e3lZ_9oKnuMcqdz6FM94-18" value="&lt;u&gt;id&lt;/u&gt;" style="ellipse;whiteSpace=wrap;html=1;align=center;" vertex="1" parent="1">
          <mxGeometry x="290" y="270" width="100" height="40" as="geometry" />
        </mxCell>
        <mxCell id="e3lZ_9oKnuMcqdz6FM94-20" value="telefone" style="ellipse;whiteSpace=wrap;html=1;align=center;" vertex="1" parent="1">
          <mxGeometry x="290" y="460" width="100" height="40" as="geometry" />
        </mxCell>
        <mxCell id="e3lZ_9oKnuMcqdz6FM94-24" style="edgeStyle=orthogonalEdgeStyle;rounded=0;orthogonalLoop=1;jettySize=auto;html=1;exitX=1;exitY=0.5;exitDx=0;exitDy=0;entryX=0;entryY=0.5;entryDx=0;entryDy=0;startArrow=none;startFill=0;endArrow=none;endFill=0;" edge="1" parent="1" source="e3lZ_9oKnuMcqdz6FM94-23" target="e3lZ_9oKnuMcqdz6FM94-5">
          <mxGeometry relative="1" as="geometry" />
        </mxCell>
        <mxCell id="e3lZ_9oKnuMcqdz6FM94-23" value="endereco" style="ellipse;whiteSpace=wrap;html=1;align=center;" vertex="1" parent="1">
          <mxGeometry x="120" y="370" width="100" height="40" as="geometry" />
        </mxCell>
        <mxCell id="e3lZ_9oKnuMcqdz6FM94-33" style="edgeStyle=orthogonalEdgeStyle;rounded=0;orthogonalLoop=1;jettySize=auto;html=1;exitX=0.5;exitY=1;exitDx=0;exitDy=0;startArrow=none;startFill=0;endArrow=none;endFill=0;" edge="1" parent="1" source="e3lZ_9oKnuMcqdz6FM94-25" target="e3lZ_9oKnuMcqdz6FM94-6">
          <mxGeometry relative="1" as="geometry" />
        </mxCell>
        <mxCell id="e3lZ_9oKnuMcqdz6FM94-25" value="&lt;u&gt;id&lt;/u&gt;" style="ellipse;whiteSpace=wrap;html=1;align=center;" vertex="1" parent="1">
          <mxGeometry x="885" y="270" width="100" height="40" as="geometry" />
        </mxCell>
        <mxCell id="e3lZ_9oKnuMcqdz6FM94-26" value="endereco" style="ellipse;whiteSpace=wrap;html=1;align=center;" vertex="1" parent="1">
          <mxGeometry x="1015" y="370" width="100" height="40" as="geometry" />
        </mxCell>
        <mxCell id="e3lZ_9oKnuMcqdz6FM94-27" value="telefone" style="ellipse;whiteSpace=wrap;html=1;align=center;" vertex="1" parent="1">
          <mxGeometry x="885" y="484" width="100" height="40" as="geometry" />
        </mxCell>
        <mxCell id="e3lZ_9oKnuMcqdz6FM94-51" style="edgeStyle=orthogonalEdgeStyle;rounded=0;orthogonalLoop=1;jettySize=auto;html=1;exitX=0.5;exitY=1;exitDx=0;exitDy=0;entryX=0.25;entryY=0;entryDx=0;entryDy=0;startArrow=none;startFill=0;endArrow=none;endFill=0;" edge="1" parent="1" source="e3lZ_9oKnuMcqdz6FM94-35" target="e3lZ_9oKnuMcqdz6FM94-4">
          <mxGeometry relative="1" as="geometry" />
        </mxCell>
        <mxCell id="e3lZ_9oKnuMcqdz6FM94-83" value="n" style="edgeLabel;html=1;align=center;verticalAlign=middle;resizable=0;points=[];" vertex="1" connectable="0" parent="e3lZ_9oKnuMcqdz6FM94-51">
          <mxGeometry x="-0.8533" y="1" relative="1" as="geometry">
            <mxPoint as="offset" />
          </mxGeometry>
        </mxCell>
        <mxCell id="e3lZ_9oKnuMcqdz6FM94-84" value="1" style="edgeLabel;html=1;align=center;verticalAlign=middle;resizable=0;points=[];" vertex="1" connectable="0" parent="e3lZ_9oKnuMcqdz6FM94-51">
          <mxGeometry x="0.9239" relative="1" as="geometry">
            <mxPoint as="offset" />
          </mxGeometry>
        </mxCell>
        <mxCell id="e3lZ_9oKnuMcqdz6FM94-35" value="Livro_Autor" style="shape=associativeEntity;whiteSpace=wrap;html=1;align=center;" vertex="1" parent="1">
          <mxGeometry x="470" y="360" width="140" height="60" as="geometry" />
        </mxCell>
        <mxCell id="e3lZ_9oKnuMcqdz6FM94-52" style="edgeStyle=orthogonalEdgeStyle;rounded=0;orthogonalLoop=1;jettySize=auto;html=1;exitX=0.5;exitY=1;exitDx=0;exitDy=0;entryX=0.75;entryY=0;entryDx=0;entryDy=0;startArrow=none;startFill=0;endArrow=none;endFill=0;" edge="1" parent="1" source="e3lZ_9oKnuMcqdz6FM94-36" target="e3lZ_9oKnuMcqdz6FM94-4">
          <mxGeometry relative="1" as="geometry" />
        </mxCell>
        <mxCell id="e3lZ_9oKnuMcqdz6FM94-85" value="1" style="edgeLabel;html=1;align=center;verticalAlign=middle;resizable=0;points=[];" vertex="1" connectable="0" parent="e3lZ_9oKnuMcqdz6FM94-52">
          <mxGeometry x="0.9176" y="-1" relative="1" as="geometry">
            <mxPoint as="offset" />
          </mxGeometry>
        </mxCell>
        <mxCell id="e3lZ_9oKnuMcqdz6FM94-86" value="n" style="edgeLabel;html=1;align=center;verticalAlign=middle;resizable=0;points=[];" vertex="1" connectable="0" parent="e3lZ_9oKnuMcqdz6FM94-52">
          <mxGeometry x="-0.8405" relative="1" as="geometry">
            <mxPoint as="offset" />
          </mxGeometry>
        </mxCell>
        <mxCell id="e3lZ_9oKnuMcqdz6FM94-36" value="Livro_Editora" style="shape=associativeEntity;whiteSpace=wrap;html=1;align=center;" vertex="1" parent="1">
          <mxGeometry x="666" y="360" width="140" height="60" as="geometry" />
        </mxCell>
        <mxCell id="e3lZ_9oKnuMcqdz6FM94-41" style="edgeStyle=orthogonalEdgeStyle;rounded=0;orthogonalLoop=1;jettySize=auto;html=1;exitX=0.75;exitY=1;exitDx=0;exitDy=0;entryX=0.5;entryY=1;entryDx=0;entryDy=0;startArrow=none;startFill=0;endArrow=none;endFill=0;" edge="1" parent="1" source="e3lZ_9oKnuMcqdz6FM94-7" target="e3lZ_9oKnuMcqdz6FM94-7">
          <mxGeometry relative="1" as="geometry" />
        </mxCell>
        <mxCell id="e3lZ_9oKnuMcqdz6FM94-59" style="edgeStyle=orthogonalEdgeStyle;rounded=0;orthogonalLoop=1;jettySize=auto;html=1;exitX=1;exitY=0.5;exitDx=0;exitDy=0;entryX=0.5;entryY=0;entryDx=0;entryDy=0;startArrow=none;startFill=0;endArrow=none;endFill=0;" edge="1" parent="1" source="e3lZ_9oKnuMcqdz6FM94-56" target="e3lZ_9oKnuMcqdz6FM94-9">
          <mxGeometry relative="1" as="geometry" />
        </mxCell>
        <mxCell id="e3lZ_9oKnuMcqdz6FM94-62" value="n" style="edgeLabel;html=1;align=center;verticalAlign=middle;resizable=0;points=[];" vertex="1" connectable="0" parent="e3lZ_9oKnuMcqdz6FM94-59">
          <mxGeometry x="-0.828" y="-4" relative="1" as="geometry">
            <mxPoint as="offset" />
          </mxGeometry>
        </mxCell>
        <mxCell id="e3lZ_9oKnuMcqdz6FM94-63" value="1" style="edgeLabel;html=1;align=center;verticalAlign=middle;resizable=0;points=[];" vertex="1" connectable="0" parent="e3lZ_9oKnuMcqdz6FM94-59">
          <mxGeometry x="0.8602" relative="1" as="geometry">
            <mxPoint as="offset" />
          </mxGeometry>
        </mxCell>
        <mxCell id="e3lZ_9oKnuMcqdz6FM94-56" value="Livro_Palavras" style="shape=associativeEntity;whiteSpace=wrap;html=1;align=center;" vertex="1" parent="1">
          <mxGeometry x="840" y="600" width="140" height="60" as="geometry" />
        </mxCell>
        <mxCell id="e3lZ_9oKnuMcqdz6FM94-64" value="palavra" style="ellipse;whiteSpace=wrap;html=1;align=center;" vertex="1" parent="1">
          <mxGeometry x="1020" y="860" width="100" height="40" as="geometry" />
        </mxCell>
        <mxCell id="e3lZ_9oKnuMcqdz6FM94-67" value="&lt;u&gt;id&lt;/u&gt;" style="ellipse;whiteSpace=wrap;html=1;align=center;" vertex="1" parent="1">
          <mxGeometry x="850" y="796" width="100" height="40" as="geometry" />
        </mxCell>
        <mxCell id="e3lZ_9oKnuMcqdz6FM94-68" value="descricao" style="ellipse;whiteSpace=wrap;html=1;align=center;" vertex="1" parent="1">
          <mxGeometry x="850" y="730" width="100" height="40" as="geometry" />
        </mxCell>
        <mxCell id="e3lZ_9oKnuMcqdz6FM94-73" style="edgeStyle=orthogonalEdgeStyle;rounded=0;orthogonalLoop=1;jettySize=auto;html=1;exitX=1;exitY=0.5;exitDx=0;exitDy=0;entryX=0.25;entryY=1;entryDx=0;entryDy=0;startArrow=none;startFill=0;endArrow=none;endFill=0;" edge="1" parent="1" source="e3lZ_9oKnuMcqdz6FM94-72" target="e3lZ_9oKnuMcqdz6FM94-4">
          <mxGeometry relative="1" as="geometry" />
        </mxCell>
        <mxCell id="e3lZ_9oKnuMcqdz6FM94-75" value="1" style="edgeLabel;html=1;align=center;verticalAlign=middle;resizable=0;points=[];" vertex="1" connectable="0" parent="e3lZ_9oKnuMcqdz6FM94-73">
          <mxGeometry x="0.5596" y="-4" relative="1" as="geometry">
            <mxPoint as="offset" />
          </mxGeometry>
        </mxCell>
        <mxCell id="e3lZ_9oKnuMcqdz6FM94-76" value="n" style="edgeLabel;html=1;align=center;verticalAlign=middle;resizable=0;points=[];" vertex="1" connectable="0" parent="e3lZ_9oKnuMcqdz6FM94-73">
          <mxGeometry x="-0.7754" y="-4" relative="1" as="geometry">
            <mxPoint as="offset" />
          </mxGeometry>
        </mxCell>
        <mxCell id="e3lZ_9oKnuMcqdz6FM94-72" value="Exemplar" style="whiteSpace=wrap;html=1;align=center;" vertex="1" parent="1">
          <mxGeometry x="310" y="660" width="100" height="40" as="geometry" />
        </mxCell>
        <mxCell id="e3lZ_9oKnuMcqdz6FM94-92" style="edgeStyle=orthogonalEdgeStyle;rounded=0;orthogonalLoop=1;jettySize=auto;html=1;exitX=0.5;exitY=1;exitDx=0;exitDy=0;entryX=0.5;entryY=0;entryDx=0;entryDy=0;startArrow=none;startFill=0;endArrow=none;endFill=0;" edge="1" parent="1" source="e3lZ_9oKnuMcqdz6FM94-89" target="e3lZ_9oKnuMcqdz6FM94-7">
          <mxGeometry relative="1" as="geometry" />
        </mxCell>
        <mxCell id="e3lZ_9oKnuMcqdz6FM94-89" value="&lt;u&gt;id&lt;/u&gt;" style="ellipse;whiteSpace=wrap;html=1;align=center;" vertex="1" parent="1">
          <mxGeometry x="584" y="160" width="100" height="40" as="geometry" />
        </mxCell>
        <mxCell id="e3lZ_9oKnuMcqdz6FM94-90" value="descricao" style="ellipse;whiteSpace=wrap;html=1;align=center;" vertex="1" parent="1">
          <mxGeometry x="470" y="170" width="100" height="40" as="geometry" />
        </mxCell>
        <mxCell id="e3lZ_9oKnuMcqdz6FM94-105" style="edgeStyle=orthogonalEdgeStyle;rounded=0;orthogonalLoop=1;jettySize=auto;html=1;exitX=0;exitY=0.5;exitDx=0;exitDy=0;entryX=1;entryY=0.25;entryDx=0;entryDy=0;startArrow=none;startFill=0;endArrow=none;endFill=0;" edge="1" parent="1" source="e3lZ_9oKnuMcqdz6FM94-94" target="e3lZ_9oKnuMcqdz6FM94-8">
          <mxGeometry relative="1" as="geometry" />
        </mxCell>
        <mxCell id="e3lZ_9oKnuMcqdz6FM94-94" value="&lt;u&gt;id&lt;/u&gt;" style="ellipse;whiteSpace=wrap;html=1;align=center;" vertex="1" parent="1">
          <mxGeometry x="360" y="716" width="100" height="40" as="geometry" />
        </mxCell>
        <mxCell id="e3lZ_9oKnuMcqdz6FM94-95" value="nome" style="ellipse;whiteSpace=wrap;html=1;align=center;" vertex="1" parent="1">
          <mxGeometry x="70" y="836" width="100" height="40" as="geometry" />
        </mxCell>
        <mxCell id="e3lZ_9oKnuMcqdz6FM94-127" style="edgeStyle=orthogonalEdgeStyle;rounded=0;orthogonalLoop=1;jettySize=auto;html=1;exitX=0;exitY=0.5;exitDx=0;exitDy=0;entryX=0.75;entryY=1;entryDx=0;entryDy=0;startArrow=none;startFill=0;endArrow=none;endFill=0;" edge="1" parent="1" source="e3lZ_9oKnuMcqdz6FM94-96" target="e3lZ_9oKnuMcqdz6FM94-8">
          <mxGeometry relative="1" as="geometry" />
        </mxCell>
        <mxCell id="e3lZ_9oKnuMcqdz6FM94-96" value="telefone" style="ellipse;whiteSpace=wrap;html=1;align=center;" vertex="1" parent="1">
          <mxGeometry x="380" y="796" width="100" height="40" as="geometry" />
        </mxCell>
        <mxCell id="e3lZ_9oKnuMcqdz6FM94-104" style="edgeStyle=orthogonalEdgeStyle;rounded=0;orthogonalLoop=1;jettySize=auto;html=1;exitX=0;exitY=0.5;exitDx=0;exitDy=0;entryX=1;entryY=0.75;entryDx=0;entryDy=0;startArrow=none;startFill=0;endArrow=none;endFill=0;" edge="1" parent="1" source="e3lZ_9oKnuMcqdz6FM94-97" target="e3lZ_9oKnuMcqdz6FM94-8">
          <mxGeometry relative="1" as="geometry" />
        </mxCell>
        <mxCell id="e3lZ_9oKnuMcqdz6FM94-97" value="endereco&lt;span style=&quot;color: rgba(0 , 0 , 0 , 0) ; font-family: monospace ; font-size: 0px&quot;&gt;%3CmxGraphModel%3E%3Croot%3E%3CmxCell%20id%3D%220%22%2F%3E%3CmxCell%20id%3D%221%22%20parent%3D%220%22%2F%3E%3CmxCell%20id%3D%222%22%20value%3D%22Attribute%22%20style%3D%22ellipse%3BwhiteSpace%3Dwrap%3Bhtml%3D1%3Balign%3Dcenter%3B%22%20vertex%3D%221%22%20parent%3D%221%22%3E%3CmxGeometry%20x%3D%22140%22%20y%3D%22180%22%20width%3D%22100%22%20height%3D%2240%22%20as%3D%22geometry%22%2F%3E%3C%2FmxCell%3E%3C%2Froot%3E%3C%2FmxGraphModel%3E&lt;/span&gt;&lt;span style=&quot;color: rgba(0 , 0 , 0 , 0) ; font-family: monospace ; font-size: 0px&quot;&gt;%3CmxGraphModel%3E%3Croot%3E%3CmxCell%20id%3D%220%22%2F%3E%3CmxCell%20id%3D%221%22%20parent%3D%220%22%2F%3E%3CmxCell%20id%3D%222%22%20value%3D%22Attribute%22%20style%3D%22ellipse%3BwhiteSpace%3Dwrap%3Bhtml%3D1%3Balign%3Dcenter%3B%22%20vertex%3D%221%22%20parent%3D%221%22%3E%3CmxGeometry%20x%3D%22140%22%20y%3D%22180%22%20width%3D%22100%22%20height%3D%2240%22%20as%3D%22geometry%22%2F%3E%3C%2FmxCell%3E%3C%2Froot%3E%3C%2FmxGraphModel%3E&lt;/span&gt;" style="ellipse;whiteSpace=wrap;html=1;align=center;" vertex="1" parent="1">
          <mxGeometry x="260" y="756" width="100" height="40" as="geometry" />
        </mxCell>
        <mxCell id="e3lZ_9oKnuMcqdz6FM94-98" value="nivelDePermissao" style="ellipse;whiteSpace=wrap;html=1;align=center;" vertex="1" parent="1">
          <mxGeometry y="780" width="100" height="40" as="geometry" />
        </mxCell>
        <mxCell id="e3lZ_9oKnuMcqdz6FM94-107" style="edgeStyle=orthogonalEdgeStyle;rounded=0;orthogonalLoop=1;jettySize=auto;html=1;exitX=1;exitY=0.5;exitDx=0;exitDy=0;entryX=0;entryY=0.5;entryDx=0;entryDy=0;startArrow=none;startFill=0;endArrow=none;endFill=0;" edge="1" parent="1" source="e3lZ_9oKnuMcqdz6FM94-106" target="e3lZ_9oKnuMcqdz6FM94-72">
          <mxGeometry relative="1" as="geometry" />
        </mxCell>
        <mxCell id="e3lZ_9oKnuMcqdz6FM94-111" value="n" style="edgeLabel;html=1;align=center;verticalAlign=middle;resizable=0;points=[];" vertex="1" connectable="0" parent="e3lZ_9oKnuMcqdz6FM94-107">
          <mxGeometry x="-0.8429" y="3" relative="1" as="geometry">
            <mxPoint as="offset" />
          </mxGeometry>
        </mxCell>
        <mxCell id="e3lZ_9oKnuMcqdz6FM94-112" value="1" style="edgeLabel;html=1;align=center;verticalAlign=middle;resizable=0;points=[];" vertex="1" connectable="0" parent="e3lZ_9oKnuMcqdz6FM94-107">
          <mxGeometry x="0.7867" y="-4" relative="1" as="geometry">
            <mxPoint as="offset" />
          </mxGeometry>
        </mxCell>
        <mxCell id="e3lZ_9oKnuMcqdz6FM94-108" style="edgeStyle=orthogonalEdgeStyle;rounded=0;orthogonalLoop=1;jettySize=auto;html=1;exitX=0.5;exitY=1;exitDx=0;exitDy=0;entryX=0.5;entryY=0;entryDx=0;entryDy=0;startArrow=none;startFill=0;endArrow=none;endFill=0;" edge="1" parent="1" source="e3lZ_9oKnuMcqdz6FM94-106" target="e3lZ_9oKnuMcqdz6FM94-8">
          <mxGeometry relative="1" as="geometry" />
        </mxCell>
        <mxCell id="e3lZ_9oKnuMcqdz6FM94-109" value="n" style="edgeLabel;html=1;align=center;verticalAlign=middle;resizable=0;points=[];" vertex="1" connectable="0" parent="e3lZ_9oKnuMcqdz6FM94-108">
          <mxGeometry x="-0.794" y="-1" relative="1" as="geometry">
            <mxPoint as="offset" />
          </mxGeometry>
        </mxCell>
        <mxCell id="e3lZ_9oKnuMcqdz6FM94-110" value="1" style="edgeLabel;html=1;align=center;verticalAlign=middle;resizable=0;points=[];" vertex="1" connectable="0" parent="e3lZ_9oKnuMcqdz6FM94-108">
          <mxGeometry x="0.815" y="-1" relative="1" as="geometry">
            <mxPoint as="offset" />
          </mxGeometry>
        </mxCell>
        <mxCell id="e3lZ_9oKnuMcqdz6FM94-106" value="Emprestimo" style="shape=associativeEntity;whiteSpace=wrap;html=1;align=center;" vertex="1" parent="1">
          <mxGeometry x="50" y="570" width="140" height="60" as="geometry" />
        </mxCell>
        <mxCell id="e3lZ_9oKnuMcqdz6FM94-118" style="edgeStyle=orthogonalEdgeStyle;rounded=0;orthogonalLoop=1;jettySize=auto;html=1;exitX=0.5;exitY=1;exitDx=0;exitDy=0;entryX=0.75;entryY=0;entryDx=0;entryDy=0;startArrow=none;startFill=0;endArrow=none;endFill=0;" edge="1" parent="1" source="e3lZ_9oKnuMcqdz6FM94-117" target="e3lZ_9oKnuMcqdz6FM94-5">
          <mxGeometry relative="1" as="geometry" />
        </mxCell>
        <mxCell id="e3lZ_9oKnuMcqdz6FM94-117" value="nome" style="ellipse;whiteSpace=wrap;html=1;align=center;" vertex="1" parent="1">
          <mxGeometry x="410" y="270" width="100" height="40" as="geometry" />
        </mxCell>
        <mxCell id="e3lZ_9oKnuMcqdz6FM94-119" value="nome" style="ellipse;whiteSpace=wrap;html=1;align=center;" vertex="1" parent="1">
          <mxGeometry x="1015" y="270" width="100" height="40" as="geometry" />
        </mxCell>
        <mxCell id="e3lZ_9oKnuMcqdz6FM94-126" style="edgeStyle=orthogonalEdgeStyle;rounded=0;orthogonalLoop=1;jettySize=auto;html=1;exitX=0.5;exitY=1;exitDx=0;exitDy=0;entryX=0.25;entryY=0;entryDx=0;entryDy=0;startArrow=none;startFill=0;endArrow=none;endFill=0;" edge="1" parent="1" source="e3lZ_9oKnuMcqdz6FM94-122" target="e3lZ_9oKnuMcqdz6FM94-72">
          <mxGeometry relative="1" as="geometry" />
        </mxCell>
        <mxCell id="e3lZ_9oKnuMcqdz6FM94-122" value="nome" style="ellipse;whiteSpace=wrap;html=1;align=center;" vertex="1" parent="1">
          <mxGeometry x="230" y="524" width="100" height="40" as="geometry" />
        </mxCell>
        <mxCell id="e3lZ_9oKnuMcqdz6FM94-125" style="edgeStyle=orthogonalEdgeStyle;rounded=0;orthogonalLoop=1;jettySize=auto;html=1;exitX=0.5;exitY=1;exitDx=0;exitDy=0;entryX=0.75;entryY=0;entryDx=0;entryDy=0;startArrow=none;startFill=0;endArrow=none;endFill=0;" edge="1" parent="1" source="e3lZ_9oKnuMcqdz6FM94-124" target="e3lZ_9oKnuMcqdz6FM94-72">
          <mxGeometry relative="1" as="geometry" />
        </mxCell>
        <mxCell id="e3lZ_9oKnuMcqdz6FM94-124" value="&lt;u&gt;id&lt;/u&gt;" style="ellipse;whiteSpace=wrap;html=1;align=center;" vertex="1" parent="1">
          <mxGeometry x="360" y="524" width="100" height="40" as="geometry" />
        </mxCell>
      </root>
    </mxGraphModel>
  </diagram>
</mxfile>
